<svg xmlns="http://www.w3.org/2000/svg" xmlns:xlink="http://www.w3.org/1999/xlink" width="48" height="48" viewBox="0 0 48 48">
    <defs>
        <path id="a" d="M11.966 4.765a1.985 1.985 0 0 1-1.98-1.988c0-1.096.888-1.987 1.98-1.987h24.77c1.091 0 1.979.89 1.979 1.987a1.985 1.985 0 0 1-1.98 1.988H11.967zm-9.487 0A1.985 1.985 0 0 1 .5 2.777C.5 1.68 1.388.79 2.48.79h.923c1.091 0 1.979.89 1.979 1.987a1.985 1.985 0 0 1-1.979 1.988H2.48zm9.487 12.61a1.985 1.985 0 0 1-1.98-1.988c0-1.095.888-1.987 1.98-1.987h24.77c1.091 0 1.979.892 1.979 1.987a1.985 1.985 0 0 1-1.98 1.988H11.967zm-9.487 0A1.985 1.985 0 0 1 .5 15.387c0-1.095.888-1.987 1.979-1.987h.923c1.091 0 1.979.892 1.979 1.987a1.985 1.985 0 0 1-1.979 1.988H2.48zm0 12.611A1.985 1.985 0 0 1 .5 27.998c0-1.096.888-1.988 1.979-1.988h.923c1.091 0 1.979.892 1.979 1.988a1.985 1.985 0 0 1-1.979 1.988H2.48zm9.487 0a1.985 1.985 0 0 1-1.98-1.988c0-1.096.888-1.988 1.98-1.988h24.77c1.091 0 1.979.892 1.979 1.988a1.985 1.985 0 0 1-1.98 1.988H11.967z"/>
    </defs>
    <g fill="none" fill-rule="evenodd" transform="translate(4 9)">
        <mask id="b" fill="#fff">
            <use xlink:href="#a"/>
        </mask>
        <use fill="#000" xlink:href="#a"/>
        <g fill="#000" mask="url(#b)">
            <path d="M-4-9h48v48H-4z"/>
        </g>
    </g>
</svg>
