<svg height="48" viewBox="0 0 48 48" width="48" xmlns="http://www.w3.org/2000/svg" xmlns:xlink="http://www.w3.org/1999/xlink"><mask id="a" fill="#fff"><path d="m0 .357h47.19v33.643h-47.19z" fill="#fff" fill-rule="evenodd"/></mask><g fill="#d8d9db" fill-rule="evenodd"><path d="m14.497 18.947c-1.441 0-2.614 1.198-2.614 2.67 0 1.473 1.173 2.67 2.614 2.67 1.44 0 2.614-1.197 2.614-2.67 0-1.472-1.173-2.67-2.614-2.67zm5.375 11.749v-.747c0-.635-1.73-3.21-5.375-3.21-3.646 0-5.375 2.575-5.375 3.21v.747zm-11.792 2.11a1.048 1.048 0 0 1 -1.041-1.054v-1.803c0-1.391 1.498-3.717 4.325-4.771a4.816 4.816 0 0 1 -1.564-3.56c0-2.637 2.107-4.782 4.697-4.782s4.697 2.145 4.697 4.782a4.816 4.816 0 0 1 -1.564 3.56c2.826 1.054 4.325 3.38 4.325 4.77v1.804a1.05 1.05 0 0 1 -1.042 1.055h-12.833z"/><path d="m6.823 3.357a3.827 3.827 0 0 0 -3.823 3.823v19.996a3.828 3.828 0 0 0 3.823 3.824h33.543a3.828 3.828 0 0 0 3.823-3.824v-19.996a3.827 3.827 0 0 0 -3.823-3.823zm33.543 30.643h-33.543a6.831 6.831 0 0 1 -6.823-6.824v-19.996a6.831 6.831 0 0 1 6.823-6.823h33.543a6.831 6.831 0 0 1 6.824 6.823v19.996a6.831 6.831 0 0 1 -6.824 6.824z" mask="url(#a)" transform="translate(.5 7.643)"/><path d="m39.323 20.419h-12.436a1.053 1.053 0 0 1 0-2.105h12.436a1.052 1.052 0 1 1 0 2.105m0 5.455h-12.436a1.053 1.053 0 0 1 0-2.105h12.436a1.052 1.052 0 1 1 0 2.105m0 5.456h-12.436a1.053 1.053 0 0 1 0-2.106h12.436a1.052 1.052 0 1 1 0 2.105"/></g></svg>