<svg xmlns="http://www.w3.org/2000/svg" width="48" height="48" viewBox="0 0 48 48">
    <path fill="#D8D9DB" fill-rule="evenodd" d="M13.805 15.153c-.552 0-1-.444-1-.991a.996.996 0 0 1 1-.992H29.73c.552 0 1 .445 1 .992a.996.996 0 0 1-1 .991H13.805zm0 6.522c-.552 0-1-.444-1-.991a.996.996 0 0 1 1-.992H29.73c.552 0 1 .444 1 .992a.996.996 0 0 1-1 .991H13.805zm20.396 16.762v-8.26l-1.06 1.052c-.015.014-.032.025-.048.038a.894.894 0 0 1-.191.131c-.014.008-.026.019-.04.026l-6.814 3.2-.017.005a.988.988 0 0 1-.152.053c-.017.004-.032.01-.05.014a1.002 1.002 0 0 1-.21.023H13.806c-.552 0-1-.444-1-.991a.996.996 0 0 1 1-.992h11.182l2.168-4.538h-13.35c-.552 0-1-.444-1-.992a.996.996 0 0 1 1-.991h14.392l6.004-5.953V9.452c0-1.179-.968-2.138-2.158-2.138H11.491c-1.19 0-2.158.96-2.158 2.139v28.984c0 1.18.968 2.139 2.158 2.139h20.552c1.19 0 2.158-.96 2.158-2.14zm6.482-17.49l1.82-1.805-2.172-2.154-1.821 1.805 2.173 2.154zm-8.25 8.179l6.835-6.777-1.086-1.077-1.086-1.077-6.834 6.777 1.086 1.077 1.086 1.077zm-1.71 1.108l-1.58-1.566-1.421 2.976 3.001-1.41zM44.625 18.44a.988.988 0 0 1 0 1.402l-3.236 3.208-4.854 4.814v10.573c0 2.456-2.015 4.452-4.492 4.452H11.491C9.015 42.89 7 40.893 7 38.437V9.453C7 6.997 9.015 5 11.49 5h20.552c2.477 0 4.492 1.997 4.492 4.453v8.495l3.089-3.063a1.006 1.006 0 0 1 1.414 0l3.587 3.555z"/>
</svg>
