<svg height="48" viewBox="0 0 48 48" width="48" xmlns="http://www.w3.org/2000/svg" xmlns:xlink="http://www.w3.org/1999/xlink"><defs><path id="a" d="m33.14 31.444c.188.23.301.523.301.842a1.34 1.34 0 0 1 -1.36 1.333h-8.628c-.363 3.228-3.133 5.746-6.49 5.746-3.355 0-6.125-2.518-6.488-5.746h-8.628a1.35 1.35 0 0 1 -1.176-.683 1.32 1.32 0 0 1 .03-1.35l5.358-8.601v-8.99c0-3.534 2.113-7.228 6.103-8.896v-.345c0-2.62 2.154-4.754 4.802-4.754s4.802 2.133 4.802 4.754v.345c3.99 1.668 6.104 5.362 6.104 8.896v8.99zm-28.88-.491h25.409l-4.293-6.89c-.13-.21-.2-.453-.2-.7v-9.368c0-2.762-2.23-7.144-8.212-7.144s-8.211 4.382-8.211 7.144v9.368c0 .247-.07.49-.201.7zm12.704 5.746a3.833 3.833 0 0 0 3.766-3.08h-7.532a3.832 3.832 0 0 0 3.766 3.08zm0-34.032a2.105 2.105 0 0 0 -2.067 1.683c.657-.1 1.34-.165 2.067-.165.726 0 1.41.065 2.067.166a2.105 2.105 0 0 0 -2.067-1.684z"/><mask id="b" fill="#fff"><use fill="#fff" fill-rule="evenodd" xlink:href="#a"/></mask></defs><g fill="#000" fill-rule="evenodd" transform="translate(7 4)"><use xlink:href="#a"/><g mask="url(#b)"><path d="m-7-4h48v48h-48z"/></g></g></svg>