<svg xmlns="http://www.w3.org/2000/svg" width="48" height="48" viewBox="0 0 48 48">
    <path fill="#D8D9DB" fill-rule="evenodd" d="M35.398 23.191l-10.814 5.304-16.929-8.303 16.929-8.301 16.93 8.3-6.116 3zm-10.814 13.92l-10.047-4.928v-5.567l9.436 4.626c.385.19.837.19 1.223 0l9.435-4.626v5.567L24.584 37.11zm20.65-18.143L25.196 9.143a1.383 1.383 0 0 0-1.223 0L3.935 18.968c-.47.23-.767.705-.767 1.224v9.312A2.238 2.238 0 0 0 2 31.458a2.26 2.26 0 0 0 2.27 2.25 2.26 2.26 0 0 0 2.271-2.25c0-.842-.474-1.569-1.167-1.954V22.12l6.406 3.142v7.768c0 .52.298.993.766 1.224l11.427 5.603a1.383 1.383 0 0 0 1.223 0l11.424-5.603c.47-.23.768-.704.768-1.224v-7.767l7.846-3.848c.47-.23.766-.704.766-1.224s-.297-.993-.766-1.224z"/>
</svg>
