<svg height="480pt" viewBox="0 -48 480 480" width="480pt" xmlns="http://www.w3.org/2000/svg"><path d="m456 0h-432c-13.253906 0-24 10.746094-24 24v144c0 13.253906 10.746094 24 24 24h432c13.253906 0 24-10.746094 24-24v-144c0-13.253906-10.746094-24-24-24zm-440 144h96v8h-96zm112 0h104v8h-104zm120 0h96v8h-96zm112 0h104v8h-104zm-344-120c0-4.417969 3.582031-8 8-8h432c4.417969 0 8 3.582031 8 8v104h-448zm0 144h96v8h-88c-4.417969 0-8-3.582031-8-8zm112 0h104v8h-104zm120 0h96v8h-96zm208 8h-96v-8h104c0 4.417969-3.582031 8-8 8zm0 0"/><path d="m360 120c13.253906 0 24-10.746094 24-24s-10.746094-24-24-24-24 10.746094-24 24 10.746094 24 24 24zm0-32c4.417969 0 8 3.582031 8 8s-3.582031 8-8 8-8-3.582031-8-8 3.582031-8 8-8zm0 0"/><path d="m400 120h48c4.417969 0 8-3.582031 8-8v-32c0-4.417969-3.582031-8-8-8h-48c-4.417969 0-8 3.582031-8 8v32c0 4.417969 3.582031 8 8 8zm8-32h32v16h-32zm0 0"/><path d="m384 224c-4.417969 0-8 3.582031-8 8 0 75.109375-60.890625 136-136 136s-136-60.890625-136-136c0-4.417969-3.582031-8-8-8s-8 3.582031-8 8c0 83.949219 68.050781 152 152 152s152-68.050781 152-152c0-4.417969-3.582031-8-8-8zm0 0"/><path d="m152 232c0-4.417969-3.582031-8-8-8s-8 3.582031-8 8c0 57.4375 46.5625 104 104 104s104-46.5625 104-104c0-4.417969-3.582031-8-8-8s-8 3.582031-8 8c0 48.601562-39.398438 88-88 88s-88-39.398438-88-88zm0 0"/><path d="m296 232c0-4.417969-3.582031-8-8-8s-8 3.582031-8 8c0 22.089844-17.910156 40-40 40s-40-17.910156-40-40c0-4.417969-3.582031-8-8-8s-8 3.582031-8 8c0 30.929688 25.070312 56 56 56s56-25.070312 56-56zm0 0"/><path d="m64 24h-32c-4.417969 0-8 3.582031-8 8v32c0 4.417969 3.582031 8 8 8s8-3.582031 8-8v-24h24c4.417969 0 8-3.582031 8-8s-3.582031-8-8-8zm0 0"/><path d="m104 24h-16c-4.417969 0-8 3.582031-8 8s3.582031 8 8 8h16c4.417969 0 8-3.582031 8-8s-3.582031-8-8-8zm0 0"/></svg>