<svg height="480pt" viewBox="0 -88 480 480" width="480pt" xmlns="http://www.w3.org/2000/svg"><path d="m336 24h-304c-4.417969 0-8 3.582031-8 8v240c0 4.417969 3.582031 8 8 8h304c4.417969 0 8-3.582031 8-8v-240c0-4.417969-3.582031-8-8-8zm-8 240h-288v-224h288zm0 0"/><path d="m456 0h-432c-13.253906 0-24 10.746094-24 24v256c0 13.253906 10.746094 24 24 24h432c13.253906 0 24-10.746094 24-24v-256c0-13.253906-10.746094-24-24-24zm-440 280v-256c0-4.417969 3.582031-8 8-8h328v272h-328c-4.417969 0-8-3.582031-8-8zm448 0c0 4.417969-3.582031 8-8 8h-88v-272h88c4.417969 0 8 3.582031 8 8zm0 0"/><path d="m93.496094 242.503906c3.125 3.125 8.1875 3.125 11.3125 0l169.695312-169.703125c2.160156-1.988281 3.058594-5.003906 2.335938-7.851562-.71875-2.847657-2.941406-5.070313-5.789063-5.789063-2.847656-.722656-5.863281.175782-7.851562 2.335938l-169.703125 169.703125c-3.117188 3.125-3.117188 8.183593 0 11.304687zm0 0"/><path d="m66.742188 165.257812c2.125-.003906 4.15625-.84375 5.65625-2.347656l90.511718-90.511718c3.035156-3.136719 2.992188-8.128907-.09375-11.214844-3.085937-3.085938-8.078125-3.128906-11.214844-.09375l-90.511718 90.511718c-2.289063 2.285157-2.972656 5.726563-1.734375 8.714844 1.238281 2.988282 4.152343 4.9375 7.386719 4.941406zm0 0"/><path d="m205.089844 242.910156c3.121094 3.125 8.1875 3.125 11.308594 0l90.511718-90.511718c3.035156-3.136719 2.992188-8.128907-.09375-11.214844-3.085937-3.085938-8.078125-3.128906-11.214844-.09375l-90.511718 90.511718c-3.125 3.121094-3.125 8.1875 0 11.308594zm0 0"/><path d="m448 24h-64c-4.417969 0-8 3.582031-8 8v48c0 4.417969 3.582031 8 8 8h64c4.417969 0 8-3.582031 8-8v-48c0-4.417969-3.582031-8-8-8zm-8 48h-48v-32h48zm0 0"/><path d="m416 104c-22.089844 0-40 17.910156-40 40s17.910156 40 40 40 40-17.910156 40-40c-.027344-22.082031-17.917969-39.972656-40-40zm0 64c-11.675781.023438-21.664062-8.378906-23.644531-19.886719-1.976563-11.507812 4.632812-22.761719 15.644531-26.640625v22.527344c0 4.417969 3.582031 8 8 8s8-3.582031 8-8v-22.527344c11.011719 3.878906 17.621094 15.132813 15.644531 26.640625-1.980469 11.507813-11.96875 19.910157-23.644531 19.886719zm0 0"/><path d="m416 200c-22.089844 0-40 17.910156-40 40s17.910156 40 40 40 40-17.910156 40-40c-.027344-22.082031-17.917969-39.972656-40-40zm0 64c-10.132812-.042969-19.148438-6.445312-22.527344-16h22.527344c4.417969 0 8-3.582031 8-8s-3.582031-8-8-8h-22.527344c4.085938-11.476562 16.136719-18.058594 28.003906-15.296875 11.863282 2.761719 19.769532 13.988281 18.367188 26.09375-1.402344 12.101563-11.660156 21.226563-23.84375 21.203125zm0 0"/></svg>