<svg height="48" viewBox="0 0 48 48" width="48" xmlns="http://www.w3.org/2000/svg"><path d="m22.3709109 20.1835742v-2.1827055c0-1.0222422.828691-1.8509332 1.8509332-1.8509332s1.8509332.828691 1.8509332 1.8509332v5.8021076l14.2231057 13.9062656c.3461477.3337853.5416852.7939777.5416852 1.2748424 0 .4808646-.1955375.9410571-.5416852 1.2748423-.3479933.3455421-.8188926.5388587-1.3092975.5375011-.4904048.0013576-.9613041-.191959-1.3092975-.5375011l-4.8137666-4.7065331c-1.8463545.4958755-3.7528508.7396574-5.6675046.7235122-6.4431482.0732499-12.5257041-2.9670742-16.3342973-8.1645873-3.80859326-5.197513-4.87513961-11.9134297-2.86413898-18.0351452.19108054-.50334811.59454278-.8967238 1.10256634-1.07500216.47823814-.17916703 11.80986364-4.06571335 20.87295884 4.79616356 3.1298807 2.9843523 5.1492397 6.9462628 5.7250757 11.2323945.06214.4803421-.0713238.9655088-.3704022 1.3464839s-.7386882.6258068-1.2200497.6794817c-.9990171.1431033-1.9266369-.545845-2.0783375-1.5435928-.4703205-3.493613-2.1190535-6.7220374-4.6735031-9.1513006-4.2934629-4.0918484-10.3933221-5.6807604-16.1374365-4.2035341-1.53655263 5.6469765.1107102 11.683071 4.3027651 15.7666985 3.8306551 3.6502708 9.0836495 5.2957996 14.2236837 4.5792794l-6.2905678-6.1504364h-5.9360926c-.6450261.0000002-1.241055-.344117-1.5635681-.902726-.3225132-.558609-.3225132-1.2468437 0-1.8054527.3225131-.558609.918542-.9027263 1.5635681-.902726h2.2429171l-3.5522146-3.473084c-.3461477-.3337852-.5416852-.7939777-.5416852-1.2748423 0-.4808647.1955375-.9410571.5416852-1.2748423.7310794-.7035898 1.8875156-.7035898 2.618595 0z" fill-rule="evenodd"/></svg>