<svg height="480pt" viewBox="-63 0 479 480" width="480pt" xmlns="http://www.w3.org/2000/svg"><path d="m328.5 0h-304c-13.253906 0-24 10.746094-24 24v432c0 13.253906 10.746094 24 24 24h304c13.253906 0 24-10.746094 24-24v-432c0-13.253906-10.746094-24-24-24zm8 24v152h-240v-160h232c4.417969 0 8 3.582031 8 8zm-256 280h-8c-4.417969 0-8-3.582031-8-8v-32c0-4.417969 3.582031-8 8-8h8zm0-184h-8c-4.417969 0-8-3.582031-8-8v-32c0-4.417969 3.582031-8 8-8h8zm-64-96c0-4.417969 3.582031-8 8-8h56v40h-8c-13.253906 0-24 10.746094-24 24v32c0 13.253906 10.746094 24 24 24h8v40h-64zm0 432v-264h64v48h-8c-13.253906 0-24 10.746094-24 24v32c0 13.253906 10.746094 24 24 24h8v144h-56c-4.417969 0-8-3.582031-8-8zm320 0c0 4.417969-3.582031 8-8 8h-232v-272h240zm0 0"/><path d="m256.5 72h64c4.417969 0 8-3.582031 8-8v-32c0-4.417969-3.582031-8-8-8h-64c-4.417969 0-8 3.582031-8 8v32c0 4.417969 3.582031 8 8 8zm8-32h48v16h-48zm0 0"/><path d="m288.5 456h32c4.417969 0 8-3.582031 8-8v-32c0-4.417969-3.582031-8-8-8s-8 3.582031-8 8v24h-24c-4.417969 0-8 3.582031-8 8s3.582031 8 8 8zm0 0"/><path d="m248.5 456h16c4.417969 0 8-3.582031 8-8s-3.582031-8-8-8h-16c-4.417969 0-8 3.582031-8 8s3.582031 8 8 8zm0 0"/></svg>