<svg height="480pt" viewBox="0 0 480 480" width="480pt" xmlns="http://www.w3.org/2000/svg"><path d="m456 0h-432c-13.253906 0-24 10.746094-24 24v304c0 13.253906 10.746094 24 24 24h176v80h-40c-13.253906 0-24 10.746094-24 24s10.746094 24 24 24h160c13.253906 0 24-10.746094 24-24s-10.746094-24-24-24h-40v-80h176c13.253906 0 24-10.746094 24-24v-304c0-13.253906-10.746094-24-24-24zm-440 24c0-4.417969 3.582031-8 8-8h432c4.417969 0 8 3.582031 8 8v264h-448zm312 432c0 4.417969-3.582031 8-8 8h-160c-4.417969 0-8-3.582031-8-8s3.582031-8 8-8h160c4.417969 0 8 3.582031 8 8zm-64-24h-48v-80h48zm200-104c0 4.417969-3.582031 8-8 8h-432c-4.417969 0-8-3.582031-8-8v-24h448zm0 0"/><path d="m432 328h16c4.417969 0 8-3.582031 8-8s-3.582031-8-8-8h-16c-4.417969 0-8 3.582031-8 8s3.582031 8 8 8zm0 0"/><path d="m324.847656 55.832031-181.015625 181.015625c-3.125 3.125-3.125 8.195313 0 11.320313s8.195313 3.125 11.320313 0l181.015625-181.015625c3.125-3.125 3.125-8.195313 0-11.320313s-8.195313-3.125-11.320313 0zm0 0"/><path d="m127.601562 37.089844-90.511718 90.511718c-2.082032 2.007813-2.914063 4.980469-2.183594 7.777344s2.917969 4.984375 5.714844 5.714844 5.769531-.101562 7.777344-2.183594l90.511718-90.511718c2.082032-2.007813 2.914063-4.980469 2.183594-7.777344s-2.917969-4.984375-5.714844-5.714844-5.769531.101562-7.777344 2.183594zm0 0"/><path d="m431.601562 165.089844-90.511718 90.511718c-2.082032 2.007813-2.914063 4.980469-2.183594 7.777344s2.917969 4.984375 5.714844 5.714844 5.769531-.101562 7.777344-2.183594l90.511718-90.511718c3.035156-3.136719 2.992188-8.128907-.09375-11.214844-3.085937-3.085938-8.078125-3.128906-11.214844-.09375zm0 0"/></svg>