<svg height="480pt" viewBox="-63 0 479 480" width="480pt" xmlns="http://www.w3.org/2000/svg"><path d="m328.5 0h-304c-13.253906 0-24 10.746094-24 24v384c0 13.253906 10.746094 24 24 24h10.238281l14.175781 42.527344c1.089844 3.265625 4.144532 5.46875 7.585938 5.472656h48c3.441406-.003906 6.496094-2.207031 7.585938-5.472656l14.175781-42.527344h100.476562l14.175781 42.527344c1.089844 3.265625 4.144532 5.46875 7.585938 5.472656h48c3.441406-.003906 6.496094-2.207031 7.585938-5.472656l14.175781-42.527344h10.238281c13.253906 0 24-10.746094 24-24v-384c0-13.253906-10.746094-24-24-24zm-312 24c0-4.417969 3.582031-8 8-8h304c4.417969 0 8 3.582031 8 8v72h-320zm82.230469 440h-36.460938l-10.664062-32h57.789062zm192 0h-36.460938l-10.664062-32h57.789062zm37.769531-48h-304c-4.417969 0-8-3.582031-8-8v-296h320v296c0 4.417969-3.582031 8-8 8zm0 0"/><path d="m296.5 264c0-66.273438-53.726562-120-120-120s-120 53.726562-120 120 53.726562 120 120 120c66.242188-.074219 119.925781-53.757812 120-120zm-120 104c-57.4375 0-104-46.5625-104-104s46.5625-104 104-104 104 46.5625 104 104c-.066406 57.410156-46.589844 103.933594-104 104zm0 0"/><path d="m263.933594 229.222656c-.097656-.238281-.21875-.445312-.328125-.671875-.128907-.308593-.28125-.613281-.449219-.902343-17.425781-42.59375-62.628906-66.832032-107.75-57.773438-45.121094 9.0625-77.464844 48.867188-77.097656 94.886719.367187 46.023437 33.339844 85.308593 78.597656 93.648437 45.261719 8.339844 90.074219-16.613281 106.816406-59.480468.042969-.089844 0-.195313.066406-.273438.3125-.808594.5-1.65625.558594-2.519531 0-.242188.152344-.449219.152344-.695313v-.082031c-.011719-.898437-.171875-1.792969-.480469-2.640625 0-.0625-.0625-.109375-.085937-.175781-.226563-.636719-.527344-1.246094-.90625-1.808594-4-5.449219-6.273438-11.976563-6.527344-18.734375v-16c.253906-6.757812 2.527344-13.285156 6.527344-18.734375.378906-.5625.679687-1.171875.90625-1.808594 0-.066406.0625-.113281.085937-.175781.308594-.847656.46875-1.742188.480469-2.640625v-.640625c-.011719-.953125-.203125-1.894531-.566406-2.777344zm-89.671875 114.777344c-39.945313.019531-73.785157-29.429688-79.28125-68.992188-5.496094-39.566406 19.035156-77.121093 57.476562-87.992187 38.4375-10.867187 79 8.285156 95.035157 44.871094-4.425782 7.277343-6.835938 15.597656-6.992188 24.113281v16c.148438 8.503906 2.574219 16.816406 7.023438 24.0625-12.863282 29.003906-41.539063 47.761719-73.261719 47.9375zm0 0"/><path d="m56.5 32c-13.253906 0-24 10.746094-24 24s10.746094 24 24 24 24-10.746094 24-24-10.746094-24-24-24zm0 32c-4.417969 0-8-3.582031-8-8s3.582031-8 8-8 8 3.582031 8 8-3.582031 8-8 8zm0 0"/><path d="m112.5 48h-16c-4.417969 0-8 3.582031-8 8s3.582031 8 8 8h16c4.417969 0 8-3.582031 8-8s-3.582031-8-8-8zm0 0"/><path d="m152.5 48h-16c-4.417969 0-8 3.582031-8 8s3.582031 8 8 8h16c4.417969 0 8-3.582031 8-8s-3.582031-8-8-8zm0 0"/><path d="m192.5 48h-16c-4.417969 0-8 3.582031-8 8s3.582031 8 8 8h16c4.417969 0 8-3.582031 8-8s-3.582031-8-8-8zm0 0"/><path d="m221.757812 218.742188c-3.125-3.121094-8.191406-3.121094-11.3125 0l-79.203124 79.203124c-2.078126 2.007813-2.910157 4.980469-2.179688 7.777344s2.917969 4.984375 5.714844 5.714844 5.769531-.101562 7.777344-2.179688l79.203124-79.203124c3.121094-3.121094 3.121094-8.1875 0-11.3125zm0 0"/><path d="m135.53125 268.289062 45.25-45.265624c3.03125-3.136719 2.988281-8.128907-.097656-11.214844-3.085938-3.085938-8.078125-3.128906-11.214844-.097656l-45.25 45.265624c-2.078125 2.007813-2.914062 4.984376-2.179688 7.78125.730469 2.796876 2.914063 4.980469 5.710938 5.710938 2.800781.734375 5.773438-.101562 7.78125-2.179688zm0 0"/><path d="m217.46875 259.710938-45.25 45.265624c-2.078125 2.007813-2.914062 4.984376-2.179688 7.78125.730469 2.796876 2.914063 4.980469 5.710938 5.710938 2.800781.734375 5.773438-.101562 7.78125-2.179688l45.25-45.265624c2.078125-2.007813 2.914062-4.984376 2.179688-7.78125-.730469-2.796876-2.914063-4.980469-5.710938-5.710938-2.800781-.734375-5.773438.101562-7.78125 2.179688zm0 0"/><path d="m320.5 360c-4.417969 0-8 3.582031-8 8v24h-24c-4.417969 0-8 3.582031-8 8s3.582031 8 8 8h32c4.417969 0 8-3.582031 8-8v-32c0-4.417969-3.582031-8-8-8zm0 0"/><path d="m264.5 392h-16c-4.417969 0-8 3.582031-8 8s3.582031 8 8 8h16c4.417969 0 8-3.582031 8-8s-3.582031-8-8-8zm0 0"/></svg>