<svg xmlns="http://www.w3.org/2000/svg" width="38" height="28.91" viewBox="0 0 38 28.91">
  <defs>
    <style>
      .cls-1 {
        fill: #a48d80;
        fill-rule: evenodd;
      }
    </style>
  </defs>
  <path id="ambient_rate_icon" data-name="ambient rate icon" class="cls-1" d="M478.024,2530a1.035,1.035,0,0,1-1.025-1.04V2502.2a1.025,1.025,0,1,1,2.05,0v26.76A1.035,1.035,0,0,1,478.024,2530Zm9.99,0a1.035,1.035,0,0,1-1.025-1.04v-10.74h-8.47a1.035,1.035,0,0,1,0-2.07h9.5a1.027,1.027,0,0,1,1.025,1.03v11.78A1.035,1.035,0,0,1,488.014,2530Zm0.173-12.15a0.83,0.83,0,0,1-.752-0.5,4.791,4.791,0,0,0-4.131-2.82,4.353,4.353,0,0,0-3.917,2.5,0.813,0.813,0,0,1-1.1.39,0.825,0.825,0,0,1-.39-1.1,6,6,0,0,1,5.4-3.45,6.406,6.406,0,0,1,5.634,3.8,0.833,0.833,0,0,1-.415,1.1A0.815,0.815,0,0,1,488.187,2517.85Zm-10.162-6.23a0.832,0.832,0,0,1-.338-1.59,4.054,4.054,0,0,0,.083-7.33,0.84,0.84,0,0,1-.389-1.11,0.825,0.825,0,0,1,1.1-.4,5.725,5.725,0,0,1-.118,10.35A0.815,0.815,0,0,1,478.025,2511.62ZM513.973,2530a1.036,1.036,0,0,1-1.025-1.04V2502.2a1.026,1.026,0,1,1,2.051,0v26.76A1.036,1.036,0,0,1,513.973,2530Zm-9.991,0a1.036,1.036,0,0,1-1.025-1.04v-11.78a1.027,1.027,0,0,1,1.025-1.03h9.5a1.035,1.035,0,0,1,0,2.07h-8.47v10.74A1.036,1.036,0,0,1,503.982,2530Zm-0.162-12.15a0.811,0.811,0,0,1-.335-0.08,0.833,0.833,0,0,1-.415-1.1,6.4,6.4,0,0,1,5.623-3.8,6,6,0,0,1,5.4,3.45,0.825,0.825,0,0,1-.39,1.1,0.812,0.812,0,0,1-1.1-.39,4.354,4.354,0,0,0-3.917-2.5,4.784,4.784,0,0,0-4.12,2.82A0.83,0.83,0,0,1,503.82,2517.85Zm10.153-6.23a0.815,0.815,0,0,1-.336-0.08,5.692,5.692,0,0,1-3.338-5.2,5.755,5.755,0,0,1,3.22-5.15,0.826,0.826,0,0,1,1.1.4,0.84,0.84,0,0,1-.39,1.11,4.053,4.053,0,0,0,.083,7.33A0.832,0.832,0,0,1,513.973,2511.62Zm-7.92-2.87H485.417a1.035,1.035,0,0,1,0-2.07h20.636A1.035,1.035,0,0,1,506.053,2508.75Zm-10.318,21.04a0.826,0.826,0,0,1-.824-0.83v-21.24a0.824,0.824,0,1,1,1.648,0v21.24A0.827,0.827,0,0,1,495.735,2529.79Zm2.014,0.21h-4.028a1.035,1.035,0,0,1,0-2.07h4.028A1.035,1.035,0,0,1,497.749,2530Z" transform="translate(-477 -2501.09)"/>
</svg>
