<svg xmlns="http://www.w3.org/2000/svg" width="34.875" height="23" viewBox="0 0 34.875 23">
  <defs>
    <style>
      .cls-1 {
        fill: #a48d80;
        fill-rule: evenodd;
      }
    </style>
  </defs>
  <path id="Forma_6" data-name="Forma 6" class="cls-1" d="M427.9,4410.92H411.019a0.977,0.977,0,0,1-.831-0.47l-8.021-13.43a1,1,0,0,1,.056-1.11c3.853-5.15,9.974-7.99,17.237-7.99s13.384,2.84,17.236,7.99a1,1,0,0,1,.057,1.11l-8.023,13.43A0.974,0.974,0,0,1,427.9,4410.92Zm-16.334-1.97h15.787l7.388-12.37c-3.5-4.32-8.894-6.69-15.281-6.69s-11.786,2.37-15.282,6.69Zm7.894-14.61a0.493,0.493,0,0,1-.492-0.5v-4.93a0.492,0.492,0,1,1,.984,0v4.93A0.493,0.493,0,0,1,419.46,4394.34Zm-11.44,3.56a0.491,0.491,0,0,1-.423-0.25l-2.091-3.55a0.511,0.511,0,0,1,.171-0.69,0.487,0.487,0,0,1,.674.18l2.091,3.55a0.512,0.512,0,0,1-.17.69A0.575,0.575,0,0,1,408.02,4397.9Zm3.53-2.02a0.491,0.491,0,0,1-.459-0.32l-1.7-4.46a0.5,0.5,0,0,1,.282-0.64,0.492,0.492,0,0,1,.636.28l1.7,4.46a0.5,0.5,0,0,1-.281.64A0.384,0.384,0,0,1,411.55,4395.88Zm4.013-1.28a0.5,0.5,0,0,1-.479-0.39l-1.051-4.7a0.49,0.49,0,0,1,.37-0.59,0.482,0.482,0,0,1,.589.37l1.052,4.7a0.5,0.5,0,0,1-.371.59A0.425,0.425,0,0,1,415.563,4394.6Zm15.336,3.3a0.571,0.571,0,0,1-.251-0.07,0.511,0.511,0,0,1-.17-0.69l2.091-3.55a0.488,0.488,0,0,1,.675-0.18,0.512,0.512,0,0,1,.17.69l-2.092,3.55A0.489,0.489,0,0,1,430.9,4397.9Zm-3.529-2.02a0.378,0.378,0,0,1-.177-0.04,0.5,0.5,0,0,1-.282-0.64l1.7-4.46a0.493,0.493,0,1,1,.918.36l-1.7,4.46A0.491,0.491,0,0,1,427.37,4395.88Zm-4.013-1.28a0.418,0.418,0,0,1-.11-0.02,0.5,0.5,0,0,1-.371-0.59l1.052-4.7a0.483,0.483,0,0,1,.589-0.37,0.492,0.492,0,0,1,.371.59l-1.052,4.7A0.5,0.5,0,0,1,423.357,4394.6Zm-2.554,11.1-1.343-9.41-1.344,9.41a1.36,1.36,0,0,0-.051.36,1.4,1.4,0,1,0,2.79,0A1.32,1.32,0,0,0,420.8,4405.7Zm-1.343,2.27a1.9,1.9,0,0,1-1.887-1.91,1.856,1.856,0,0,1,.069-0.49l1.332-9.35a0.49,0.49,0,0,1,.973,0l1.343,9.4a1.648,1.648,0,0,1,.057.44A1.9,1.9,0,0,1,419.46,4407.97Zm0-8.2-0.858,6a1.248,1.248,0,0,0-.046.29,0.9,0.9,0,1,0,1.806,0,1,1,0,0,0-.035-0.24Z" transform="translate(-402.031 -4387.94)"/>
</svg>
