<svg xmlns="http://www.w3.org/2000/svg" width="45" height="40.88" viewBox="0 0 45 40.88">
  <defs>
    <style>
      .cls-1 {
        fill: #a48d80;
        fill-rule: evenodd;
      }
    </style>
  </defs>
  <path id="dificulty_icon" data-name="dificulty icon" class="cls-1" d="M90.672,4384.35a1.077,1.077,0,0,0,.616.2,1.056,1.056,0,0,0,.832-0.4,0.944,0.944,0,0,0-.215-1.37,2.531,2.531,0,0,1,0-4.7c0.249-.17,2.428-1.77,2.428-3.92s-2.179-3.75-2.428-3.92a1.077,1.077,0,0,0-1.445.2,0.946,0.946,0,0,0,.209,1.37,2.53,2.53,0,0,1,0,4.7c-0.249.17-2.429,1.77-2.429,3.92S90.423,4384.18,90.672,4384.35Zm5.674-7.84c-0.249.17-2.428,1.77-2.428,3.92s2.179,3.75,2.428,3.92a1.074,1.074,0,0,0,.614.2,1.054,1.054,0,0,0,.831-0.4,0.946,0.946,0,0,0-.209-1.37,2.53,2.53,0,0,1,0-4.7c0.249-.17,2.428-1.77,2.428-3.92s-2.179-3.75-2.428-3.92a1.077,1.077,0,0,0-1.445.2,0.946,0.946,0,0,0,.209,1.37A2.53,2.53,0,0,1,96.346,4376.51Zm24.116,14.02a0.981,0.981,0,1,0,0-1.96H84.347a0.981,0.981,0,1,0,0,1.96H87.9v14.95a5.6,5.6,0,0,0,5.731,5.44h17.775a5.6,5.6,0,0,0,5.731-5.44v-14.95h3.325Zm-5.4,14.95a3.575,3.575,0,0,1-3.66,3.47H93.631a3.575,3.575,0,0,1-3.66-3.47v-14.95H109.88v12.02a1.038,1.038,0,0,0,2.072,0v-12.02h3.114v14.95Zm-28.731-13.82H81a0.981,0.981,0,1,0,0,1.96h5.332A0.981,0.981,0,1,0,86.335,4391.66Zm37.6,0H118.6a0.982,0.982,0,1,0,0,1.96h5.331A0.982,0.982,0,1,0,123.932,4391.66Z" transform="translate(-79.969 -4370.03)"/>
</svg>
