<svg xmlns="http://www.w3.org/2000/svg" width="41" height="27.91" viewBox="0 0 41 27.91">
  <defs>
    <style>
      .cls-1 {
        fill: #a48d80;
        fill-rule: evenodd;
      }
    </style>
  </defs>
  <path id="food_rate_icon" data-name="food rate icon" class="cls-1" d="M86.562,2530.99a1.011,1.011,0,0,1-.991-1.03v-16.93a0.992,0.992,0,1,1,1.982,0v16.93A1.011,1.011,0,0,1,86.562,2530.99Zm17.526-1.2c-6.99,0-12.677-5.94-12.677-13.24s5.687-13.24,12.677-13.24,12.676,5.94,12.676,13.24S111.078,2529.79,104.088,2529.79Zm0-24.41a11.181,11.181,0,1,0,10.693,11.17A10.952,10.952,0,0,0,104.088,2505.38Zm0,19.39a8.233,8.233,0,0,1,0-16.45,0.836,0.836,0,0,1,0,1.67,6.566,6.566,0,1,0,6.282,6.56,0.8,0.8,0,1,1,1.593,0A8.064,8.064,0,0,1,104.088,2524.77Zm-17.526-14.78a0.819,0.819,0,0,1-.8-0.83v-4.82a0.8,0.8,0,1,1,1.593,0v4.82A0.819,0.819,0,0,1,86.562,2509.99Zm36.443,19.99a1.011,1.011,0,0,1-.992-1.03v-24.61a0.992,0.992,0,1,1,1.983,0v24.61A1.011,1.011,0,0,1,123.005,2529.98Zm-39.018-19.55A1.011,1.011,0,0,1,83,2509.4v-5.06a0.992,0.992,0,1,1,1.982,0v5.06A1.011,1.011,0,0,1,83.987,2510.43Zm5.149,0a1.011,1.011,0,0,1-.991-1.03v-5.06a0.992,0.992,0,1,1,1.982,0v5.06A1.011,1.011,0,0,1,89.136,2510.43Zm-2.574,2.69A3.651,3.651,0,0,1,83,2509.4a0.992,0.992,0,1,1,1.982,0,1.585,1.585,0,1,0,3.167,0,0.992,0.992,0,1,1,1.982,0A3.65,3.65,0,0,1,86.562,2513.12ZM123,2520.6a0.771,0.771,0,0,1-.475-0.16,10.537,10.537,0,0,1-4.025-8.38,11.406,11.406,0,0,1,4.025-8.79,0.769,0.769,0,0,1,1.115.17,0.851,0.851,0,0,1-.162,1.16,9.678,9.678,0,0,0-3.385,7.46,8.83,8.83,0,0,0,3.384,7.04,0.864,0.864,0,0,1,.162,1.17A0.777,0.777,0,0,1,123,2520.6Z" transform="translate(-83 -2503.09)"/>
</svg>
