<svg xmlns="http://www.w3.org/2000/svg" width="31" height="30" viewBox="0 0 31 30">
  <defs>
    <style>
      .cls-1 {
        fill: #a48d80;
        fill-rule: evenodd;
      }
    </style>
  </defs>
  <path id="points_icon" data-name="points icon" class="cls-1" d="M360.731,2271.7H342.587a1,1,0,0,1-1-.99v-8.45a1,1,0,0,1,2,0v7.47h16.144v-8.35a1,1,0,0,1,2,0v9.33A1,1,0,0,1,360.731,2271.7Zm0,4.3H342.587a0.985,0.985,0,1,1,0-1.97h18.144A0.985,0.985,0,1,1,360.731,2276Zm-12.655-5.29v-5.57m0,6.36a0.8,0.8,0,0,1-.8-0.79v-5.57a0.8,0.8,0,0,1,1.607,0v5.57A0.8,0.8,0,0,1,348.076,2271.5Zm6.228-.79v-5.57m0,6.36a0.8,0.8,0,0,1-.8-0.79v-5.57a0.8,0.8,0,0,1,1.607,0v5.57A0.8,0.8,0,0,1,354.3,2271.5Zm-11.717-9.13a6.491,6.491,0,1,1,0-12.98,6.7,6.7,0,0,1,3.282.86,0.984,0.984,0,0,1,.368,1.35,1.011,1.011,0,0,1-1.366.36,4.656,4.656,0,0,0-2.284-.6,4.52,4.52,0,1,0,0,9.04,4.662,4.662,0,0,0,2.285-.6,1.01,1.01,0,0,1,1.365.36,0.985,0.985,0,0,1-.367,1.35A6.708,6.708,0,0,1,342.587,2262.37Zm18.143-.01a0.985,0.985,0,0,1-.056-1.97,4.517,4.517,0,0,0-.262-9.03,4.656,4.656,0,0,0-2.284.6,1.01,1.01,0,0,1-1.365-.36,0.984,0.984,0,0,1,.367-1.35,6.7,6.7,0,0,1,3.282-.86,6.488,6.488,0,0,1,.375,12.97H360.73Zm-3.718-9.94a1,1,0,0,1-.967-0.74,5.055,5.055,0,0,0-9.613-.41,1,1,0,0,1-1.276.6,0.974,0.974,0,0,1-.61-1.25,7.062,7.062,0,0,1,13.435.57,0.989,0.989,0,0,1-.718,1.2A1.083,1.083,0,0,1,357.012,2252.42Z" transform="translate(-336 -2246)"/>
</svg>
