<svg xmlns="http://www.w3.org/2000/svg" width="40" height="28" viewBox="0 0 40 28">
  <defs>
    <style>
      .cls-1 {
        fill: #a48d80;
        fill-rule: evenodd;
      }
    </style>
  </defs>
  <path id="service_rate_icon" data-name="service rate icon" class="cls-1" d="M318.939,2529h-37.89a1.06,1.06,0,0,1,0-2.12h37.89A1.06,1.06,0,0,1,318.939,2529Zm-2.112-3.16a1.061,1.061,0,0,1-1.055-1.06,15.661,15.661,0,1,0-31.321,0,1.055,1.055,0,1,1-2.11,0,17.771,17.771,0,1,1,35.541,0A1.061,1.061,0,0,1,316.827,2525.84Zm-5.352-4.86a0.844,0.844,0,0,1-.81-0.6,11,11,0,0,0-10.553-7.81,0.858,0.858,0,0,1-.849-0.86,0.849,0.849,0,0,1,.849-0.85,12.7,12.7,0,0,1,12.173,9.02,0.842,0.842,0,0,1-.559,1.06A0.732,0.732,0,0,1,311.475,2520.98Zm-11.88-13.89a3.045,3.045,0,1,1,3.027-3.05A3.043,3.043,0,0,1,299.6,2507.09Zm0-3.97a0.92,0.92,0,1,0,.917.92A0.917,0.917,0,0,0,299.6,2503.12Z" transform="translate(-280 -2501)"/>
</svg>
