<svg xmlns="http://www.w3.org/2000/svg" width="25" height="34" viewBox="0 0 25 34">
  <defs>
    <style>
      .cls-1 {
        fill: #a48d80;
        fill-rule: evenodd;
      }
    </style>
  </defs>
  <path id="Forma_5" data-name="Forma 5" class="cls-1" d="M282.433,4409.98a12.793,12.793,0,0,1-12.5-13.04c0-9.89,5.346-20.96,12.5-20.96s12.5,11.07,12.5,20.96A12.793,12.793,0,0,1,282.433,4409.98Zm0-31.69c-4.756,0-10.284,8.15-10.284,18.65a10.293,10.293,0,1,0,20.568,0C292.717,4386.44,287.189,4378.29,282.433,4378.29Zm-8.138,18.63a0.58,0.58,0,0,1-.561-0.59v-1.98a0.561,0.561,0,1,1,1.122,0v1.98A0.58,0.58,0,0,1,274.3,4396.92Zm3.167,0a0.58,0.58,0,0,1-.561-0.59v-1.98a0.561,0.561,0,1,1,1.122,0v1.98A0.58,0.58,0,0,1,277.462,4396.92Zm3.165,0a0.58,0.58,0,0,1-.561-0.59v-1.98a0.561,0.561,0,1,1,1.122,0v1.98A0.58,0.58,0,0,1,280.627,4396.92Zm3.165,0a0.58,0.58,0,0,1-.561-0.59v-1.98a0.561,0.561,0,1,1,1.122,0v1.98A0.58,0.58,0,0,1,283.792,4396.92Zm3.166,0a0.58,0.58,0,0,1-.561-0.59v-1.98a0.561,0.561,0,1,1,1.122,0v1.98A0.58,0.58,0,0,1,286.958,4396.92Zm3.166,0a0.58,0.58,0,0,1-.561-0.59v-1.98a0.561,0.561,0,1,1,1.122,0v1.98A0.58,0.58,0,0,1,290.124,4396.92Zm-8.479,3.98a0.564,0.564,0,0,1-.4-0.17l-0.636-.67-0.635.67a0.542,0.542,0,0,1-.793,0,0.605,0.605,0,0,1,0-.83l1.032-1.08a0.558,0.558,0,0,1,.792,0l1.033,1.08a0.606,0.606,0,0,1,0,.83A0.562,0.562,0,0,1,281.645,4400.9Z" transform="translate(-269.938 -4375.97)"/>
</svg>
