<svg xmlns="http://www.w3.org/2000/svg" width="48" height="48" viewBox="0 0 48 48">
    <path fill="#000" fill-rule="evenodd" d="M36.828 37.8H11.172v-2.406c0-2.025 4.411-7.88 12.828-7.88s12.828 5.855 12.828 7.88v2.407zM24 10.2c3.653 0 6.625 2.995 6.625 6.68 0 3.683-2.972 6.68-6.625 6.68-3.654 0-6.625-2.997-6.625-6.68 0-3.685 2.971-6.68 6.625-6.68zm5.478 14.866a9.9 9.9 0 0 0 4.32-8.186C33.798 11.432 29.403 7 24 7c-5.403 0-9.798 4.432-9.798 9.88a9.897 9.897 0 0 0 4.32 8.186C11.676 27.024 8 32.363 8 35.394V39.4c0 .884.71 1.6 1.587 1.6h28.826C39.29 41 40 40.284 40 39.4v-4.006c0-3.031-3.676-8.37-10.522-10.328z"/>
</svg>
