<svg xmlns="http://www.w3.org/2000/svg" width="20.719" height="26.969" viewBox="0 0 20.719 26.969">
  <defs>
    <style>
      .cls-1 {
        fill: #a48d80;
        fill-rule: evenodd;
      }
    </style>
  </defs>
  <path id="bath_icon" data-name="bath icon" class="cls-1" d="M566.336,600.131a1.2,1.2,0,0,1-1.2-1.2V587.658a1.2,1.2,0,0,1,1.2-1.2h8.074a1.2,1.2,0,0,1,1.2,1.2v8.232a1.2,1.2,0,1,1-2.395,0v-7.029h-5.679v10.068A1.2,1.2,0,0,1,566.336,600.131Zm12.222,10.08a1.2,1.2,0,0,1-1.1-.713l-1.185-2.673a1.2,1.2,0,0,1,1.094-1.691c1.317,0,5.387-.383,5.987-5h-15.75c0.282,2.289,1.365,5,3.668,5a1.2,1.2,0,0,1,.935.45,1.212,1.212,0,0,1,.235,1.014l-0.592,2.671a1.2,1.2,0,1,1-2.339-.523l0.312-1.4c-3.412-.973-4.69-5.354-4.69-8.414a1.2,1.2,0,0,1,1.2-1.2h18.295a1.2,1.2,0,0,1,1.2,1.2c0,5.406-3.3,7.845-6.682,8.453l0.5,1.138a1.2,1.2,0,0,1-.607,1.587A1.185,1.185,0,0,1,578.558,610.211Zm-9.091,2.026h11.526m-11.526,0h0Zm0.05,0h0Zm0.05,0h0Zm0.049,0h0Zm0.05,0h0Zm0.05,0h0Zm0.049,0h0Zm0.05,0h0Zm0.05,0h0Zm0.049,0h0Zm0.05,0h0Zm0.05,0h0Zm0.049,0h0Zm0.05,0h0Zm0.05,0h0Zm0.05,0h0Zm0.049,0h0Zm0.05,0h0Zm0.05,0h0Zm0.049,0h0Zm0.05,0h0Zm0.05,0h0Zm0.049,0h0Zm0.05,0h0Zm0.05,0h0Zm0.049,0h0Zm0.05,0h0Zm0.05,0h0Zm0.049,0h0Zm0.05,0h0Zm0.05,0h0Zm0.049,0h0Zm0.05,0h0Zm0.05,0h0Zm0.049,0h0Zm0.05,0h0Zm0.05,0h0Zm0.05,0h0Zm0.049,0h0Zm0.05,0h0Zm0.049,0h0Zm0.05,0h0Zm0.05,0h0Zm0.05,0h0Zm0.049,0h0Zm0.05,0h0Zm0.05,0h0Zm0.049,0h0Zm0.05,0h0Zm0.05,0h0Zm0.049,0h0Zm0.05,0h0Zm0.05,0h0Zm0.049,0h0Zm0.05,0h0Zm0.05,0h0Zm0.049,0h0Zm0.05,0h0Zm0.05,0h0Zm0.049,0h0Zm0.05,0h0Zm0.05,0h0Zm0.049,0h0Zm0.05,0h0Zm0.05,0h0Zm0.049,0h0Zm0.05,0h0Zm0.05,0h0Zm0.05,0h0Zm0.049,0h0Zm0.05,0h0Zm0.049,0h0Zm0.05,0h0Zm0.05,0h0Zm0.05,0h0Zm0.049,0h0Zm0.05,0h0Zm0.05,0h0Zm0.049,0h0Zm0.05,0h0Zm0.05,0h0Zm0.049,0h0Zm0.05,0h0Zm0.05,0h0Zm0.049,0h0Zm0.05,0h0Zm0.05,0h0Zm0.049,0h0Zm0.05,0h0Zm0.05,0h0Zm0.049,0h0Zm0.05,0h0Zm0.05,0h0Zm0.049,0h0Zm0.05,0h0Zm0.05,0h0Zm0.05,0h0Zm0.049,0h0Zm0.05,0h0Zm0.05,0h0Zm0.049,0h0Zm0.05,0h0Zm0.05,0h0Zm0.049,0h0Zm0.05,0h0Zm0.05,0h0Zm0.049,0h0Zm0.05,0h0Zm0.05,0h0Zm0.049,0h0Zm0.05,0h0Zm0.05,0h0Zm0.049,0h0Zm0.05,0h0Zm0.05,0h0Zm0.049,0h0Zm0.05,0h0Zm0.05,0h0Zm0.049,0h0Zm0.05,0h0Zm0.05,0h0Zm0.049,0h0Zm0.05,0h0Zm0.05,0h0Zm0.049,0h0Zm0.05,0h0Zm0.05,0h0Zm0.05,0h0Zm0.049,0h0Zm0.05,0h0Zm0.05,0h0Zm0.049,0h0Zm0.05,0h0Zm0.05,0h0Zm0.049,0h0Zm0.05,0h0Zm0.05,0h0Zm0.049,0h0Zm0.05,0h0Zm0.05,0h0Zm0.049,0h0Zm0.05,0h0Zm0.05,0h0Zm0.049,0h0Zm0.05,0h0Zm0.05,0h0Zm0.049,0h0Zm0.05,0h0Zm0.05,0h0Zm0.05,0h0Zm0.049,0h0Zm0.05,0h0Zm0.049,0h0Zm0.05,0h0Zm0.05,0h0Zm0.05,0h0Zm0.049,0h0Zm0.05,0h0Zm0.05,0h0Zm0.049,0h0Zm0.05,0h0Zm0.05,0h0Zm0.049,0h0Zm0.05,0h0Zm0.05,0h0Zm0.049,0h0Zm0.05,0h0Zm0.05,0h0Zm0.049,0h0Zm0.05,0h0Zm0.05,0h0Zm0.049,0h0Zm0.05,0h0Zm0.05,0h0Zm0.049,0h0Zm0.05,0h0Zm0.05,0h0Zm0.049,0h0Zm0.05,0h0Zm0.05,0h0Zm0.05,0h0Zm0.049,0h0Zm0.05,0h0Zm0.05,0h0Zm0.049,0h0Zm0.05,0h0Zm0.05,0h0Zm0.049,0h0Zm0.05,0h0Zm0.05,0h0Zm0.049,0h0Zm0.05,0h0Zm0.05,0h0Zm0.049,0h0Zm0.05,0h0Zm0.05,0h0Zm0.049,0h0Zm0.05,0h0Zm0.05,0h0Zm0.049,0h0Zm0.05,0h0Zm0.05,0h0Zm0.049,0h0Zm0.05,0h0Zm0.05,0h0Zm0.049,0h0Zm0.05,0h0Zm0.05,0h0Zm0.05,0h0Zm0.049,0h0Zm0.05,0h0Zm0.05,0h0Zm0.049,0h0Zm0.05,0h0Zm0.05,0h0Zm0.049,0h0Zm0.05,0h0Zm0.05,0h0Zm0.049,0h0Zm0.05,0h0Zm0.05,0h0Zm0.049,0h0Zm0.05,0h0Zm0.05,0h0Zm0.049,0h0Zm0.05,0h0Zm0.05,0h0Zm0.049,0h0Zm0.05,0h0Zm0.05,0h0Zm0.049,0h0Zm0.05,0h0Zm0.05,0h0Zm0,0h0Zm0,1.2H569.467a1.2,1.2,0,0,1,0-2.4h11.526A1.2,1.2,0,0,1,580.993,613.439Z" transform="translate(-565.125 -586.469)"/>
</svg>
