<svg xmlns="http://www.w3.org/2000/svg" width="40" height="27" viewBox="0 0 40 27">
  <defs>
    <style>
      .cls-1 {
        fill: #a48d80;
        fill-rule: evenodd;
      }
    </style>
  </defs>
  <path id="bedrooms" class="cls-1" d="M493.628,608.879H456.31a1.33,1.33,0,0,1-1.333-1.328v-9.4a1.331,1.331,0,0,1,1.333-1.329h37.318a1.331,1.331,0,0,1,1.333,1.329v9.4A1.33,1.33,0,0,1,493.628,608.879Zm-35.984-2.657h34.65v-6.74h-34.65v6.74Zm2.7,6.762a1.271,1.271,0,0,1-1.273-1.269v-4.164a1.274,1.274,0,0,1,2.547,0v4.164A1.271,1.271,0,0,1,460.341,612.984Zm29.255,0a1.271,1.271,0,0,1-1.273-1.269v-4.164a1.274,1.274,0,0,1,2.547,0v4.164A1.271,1.271,0,0,1,489.6,612.984Zm-33.286-13.5a1.331,1.331,0,0,1-1.333-1.329V587.321a1.334,1.334,0,0,1,2.667,0v10.832A1.332,1.332,0,0,1,456.31,599.482Zm10.335-3.43a1.329,1.329,0,0,1-.65-0.17l-7.14-3.984a1.33,1.33,0,1,1,1.3-2.318l7.14,3.984A1.329,1.329,0,0,1,466.645,596.052Zm-2.382,11.5a1.331,1.331,0,0,1-1.334-1.329v-7.329a1.334,1.334,0,0,1,2.667,0v7.329A1.33,1.33,0,0,1,464.263,607.549Z" transform="translate(-454.969 -586)"/>
</svg>
